<svg xmlns="http://www.w3.org/2000/svg" width="1800" height="900" zoomAndPan="disable"><style type="text/css"><![CDATA[
		line
		{
			stroke: rgba(255,255,255,0.125);
			stroke-width: 0.85px;
		}
		
		polygon
		{
			fill: rgba(255,255,255,0.075);
		}
    ]]></style><path d="M900 0v900M0 0l900 900M100 0l800 800M200 0l700 700M300 0l600 600M400 0l500 500M300 900l300-300M400 900l300-300M500 900l300-300M600 900l300-300M700 900l200-200M800 900l100-100M1800 0L900 900M1700 0L900 800M1600 0L900 700M1500 0L900 600M1400 0L900 500M1500 900l-300-300M1400 900l-300-300M1300 900l-300-300M1200 900L900 600M1100 900L900 700M1000 900L900 800"/><path d="M300 900l300-300 50 50 50-50 50 50 50-50 50 50 50-50v300-300l50 50 50-50 50 50 50-50 50 50 50-50 300 300zM350 950l300-300 50 50 50-50 50 50 50-50 50 50v200-200l50-50 50 50 50-50 50 50 50-50 300 300zM400 1000l300-300 50 50 50-50 50 50 50-50v200-200l50 50 50-50 50 50 50-50 200 200zM450 1050l300-300 50 50 50-50 50 50v100-100l50-50 50 50 50-50 300 300zM500 1100l300-300 50 50 50-50v100-100l50 50 50-50 300 300zM550 1150l300-300 50 50 50-50 300 300z"/></svg>